<?xml version="1.0" encoding="utf-8"?>
<!-- Generator: Adobe Illustrator 17.1.0, SVG Export Plug-In . SVG Version: 6.00 Build 0)  -->
<!DOCTYPE svg PUBLIC "-//W3C//DTD SVG 1.1//EN" "http://www.w3.org/Graphics/SVG/1.1/DTD/svg11.dtd">
<svg version="1.1" xmlns="http://www.w3.org/2000/svg" xmlns:xlink="http://www.w3.org/1999/xlink" x="0px" y="0px" width="200px"
	 height="50px" viewBox="0 0 200 50" style="enable-background:new 0 0 200 50;" xml:space="preserve">
<g id="Layer_4">
</g>
<g id="Layer_1">
</g>
<g id="Layer_2">
	<g>
		<path style="fill:#004F3D;" d="M66.535,22.94c-1.298,0.316-2.712,0.476-4.242,0.476c-1.587,0-3.047-0.252-4.382-0.756
			s-2.482-1.213-3.444-2.128c-0.961-0.914-1.712-2.012-2.254-3.29c-0.541-1.278-0.812-2.702-0.812-4.271
			c0-1.586,0.275-3.023,0.826-4.312c0.55-1.288,1.311-2.385,2.281-3.29s2.109-1.601,3.416-2.086s2.717-0.729,4.229-0.729
			c1.568,0,3.024,0.238,4.368,0.715c1.344,0.476,2.436,1.115,3.275,1.918l-3.023,3.443c-0.467-0.541-1.083-0.984-1.849-1.33
			c-0.766-0.345-1.633-0.518-2.604-0.518c-0.84,0-1.615,0.154-2.324,0.462s-1.325,0.737-1.848,1.288
			c-0.523,0.551-0.929,1.204-1.218,1.96c-0.29,0.756-0.435,1.582-0.435,2.478c0,0.915,0.131,1.755,0.393,2.521
			c0.261,0.766,0.648,1.424,1.161,1.974c0.514,0.551,1.148,0.98,1.904,1.288c0.756,0.309,1.619,0.462,2.59,0.462
			c0.561,0,1.093-0.042,1.597-0.126s0.97-0.219,1.399-0.405v-3.612h-3.779v-3.864h8.176v10.5
			C68.967,22.212,67.832,22.623,66.535,22.94z"/>
		<path style="fill:#004F3D;" d="M83.35,22.912l-4.305-7.868h-1.632v7.868h-4.676V3.088h7.56c0.952,0,1.881,0.099,2.786,0.294
			c0.905,0.196,1.718,0.528,2.437,0.994c0.718,0.467,1.292,1.083,1.722,1.848c0.43,0.766,0.645,1.718,0.645,2.856
			c0,1.344-0.364,2.474-1.093,3.388c-0.728,0.915-1.735,1.568-3.023,1.96l5.18,8.484H83.35z M83.153,9.164
			c0-0.467-0.099-0.845-0.296-1.134c-0.196-0.289-0.45-0.514-0.76-0.672s-0.656-0.267-1.041-0.322s-0.755-0.084-1.111-0.084h-2.56
			v4.62h2.278c0.394,0,0.797-0.032,1.21-0.099c0.413-0.064,0.788-0.182,1.126-0.35s0.614-0.41,0.83-0.728
			C83.045,10.079,83.153,9.668,83.153,9.164z"/>
		<path style="fill:#004F3D;" d="M89.257,12.944c0-1.587,0.271-3.02,0.812-4.298c0.542-1.278,1.293-2.366,2.254-3.263
			c0.962-0.896,2.101-1.586,3.416-2.071c1.316-0.485,2.749-0.729,4.299-0.729c2.352,0,4.396,0.542,6.132,1.624
			c0.392-0.448,0.793-0.896,1.204-1.344c0.41-0.448,0.821-0.905,1.231-1.372l1.876,1.652c-0.41,0.43-0.812,0.863-1.204,1.302
			c-0.392,0.438-0.793,0.873-1.204,1.302c0.896,0.915,1.582,1.97,2.059,3.164c0.476,1.194,0.714,2.539,0.714,4.032
			c0,1.567-0.275,2.991-0.826,4.27c-0.551,1.279-1.307,2.376-2.268,3.29c-0.962,0.915-2.105,1.629-3.431,2.143
			c-1.325,0.513-2.763,0.77-4.312,0.77h-0.14c-1.232,0-2.381-0.163-3.444-0.49c-1.064-0.326-2.007-0.807-2.828-1.441l-2.492,2.66
			c-0.317-0.262-0.63-0.528-0.938-0.799c-0.309-0.271-0.621-0.536-0.938-0.798l2.492-2.716c-0.803-0.858-1.414-1.876-1.834-3.052
			S89.257,14.326,89.257,12.944z M94.129,12.972c0,1.363,0.289,2.483,0.868,3.36l8.12-8.82c-0.374-0.261-0.826-0.462-1.358-0.602
			s-1.106-0.21-1.722-0.21c-0.934,0-1.765,0.163-2.492,0.49c-0.729,0.326-1.344,0.774-1.849,1.344
			c-0.504,0.569-0.892,1.236-1.161,2.002C94.264,11.302,94.129,12.113,94.129,12.972z M105.917,12.944
			c0-0.709-0.084-1.372-0.252-1.988s-0.439-1.166-0.812-1.652l-8.176,8.904c0.858,0.69,1.969,1.036,3.332,1.036
			c0.896,0,1.708-0.163,2.436-0.49c0.729-0.326,1.349-0.77,1.862-1.33c0.514-0.56,0.91-1.222,1.19-1.987
			C105.776,14.671,105.917,13.84,105.917,12.944z"/>
		<path style="fill:#004F3D;" d="M125.488,22.912l-7.979-12.964h-0.084l0.112,12.964h-4.648V3.088h5.46l7.952,12.937h0.084
			l-0.112-12.937h4.648v19.824H125.488z"/>
		<path style="fill:#004F3D;" d="M146.488,22.912l-7.979-12.964h-0.084l0.112,12.964h-4.648V3.088h5.46l7.952,12.937h0.084
			l-0.112-12.937h4.648v19.824H146.488z"/>
		<path style="fill:#004F3D;" d="M64.421,47.912l-7.363-9.128h-0.057v9.128h-4.676V28.088h4.676v8.064h0.084l7.084-8.064h5.992
			l-8.54,9.128l9.044,10.696H64.421z"/>
		<path style="fill:#004F3D;" d="M90.657,37.916c0,1.568-0.271,3.001-0.812,4.298c-0.542,1.298-1.293,2.408-2.255,3.332
			c-0.961,0.924-2.104,1.639-3.43,2.143s-2.763,0.756-4.312,0.756c-1.55,0-2.982-0.252-4.299-0.756
			c-1.315-0.504-2.454-1.219-3.416-2.143c-0.961-0.924-1.712-2.034-2.254-3.332c-0.541-1.297-0.812-2.729-0.812-4.298
			c0-1.586,0.271-3.02,0.812-4.298c0.542-1.278,1.293-2.366,2.254-3.262c0.962-0.896,2.101-1.587,3.416-2.072
			c1.316-0.485,2.749-0.729,4.299-0.729c1.549,0,2.986,0.243,4.312,0.729s2.469,1.176,3.43,2.072
			c0.962,0.896,1.713,1.983,2.255,3.262C90.387,34.896,90.657,36.33,90.657,37.916z M85.533,37.916c0-0.858-0.14-1.661-0.42-2.408
			c-0.28-0.746-0.668-1.386-1.162-1.918c-0.495-0.531-1.092-0.952-1.792-1.26s-1.47-0.462-2.31-0.462
			c-0.841,0-1.606,0.154-2.297,0.462s-1.287,0.729-1.792,1.26c-0.504,0.532-0.892,1.172-1.161,1.918
			c-0.271,0.747-0.406,1.55-0.406,2.408c0,0.896,0.14,1.722,0.42,2.479c0.28,0.756,0.667,1.404,1.162,1.945
			c0.494,0.542,1.087,0.966,1.777,1.274c0.69,0.308,1.456,0.462,2.297,0.462c0.84,0,1.604-0.154,2.296-0.462
			c0.69-0.309,1.288-0.732,1.792-1.274c0.504-0.541,0.896-1.189,1.176-1.945C85.394,39.638,85.533,38.812,85.533,37.916z"/>
		<path style="fill:#004F3D;" d="M110.677,47.912l0.112-14.028h-0.084l-5.151,14.028h-3.36l-5.012-14.028h-0.084l0.111,14.028
			h-4.508V28.088h6.812l4.514,12.712h0.112l4.316-12.712h6.925v19.824H110.677z"/>
		<path style="fill:#004F3D;" d="M136.297,47.912l0.112-14.028h-0.084l-5.151,14.028h-3.36l-5.012-14.028h-0.084l0.111,14.028
			h-4.508V28.088h6.812l4.514,12.712h0.112l4.316-12.712h6.925v19.824H136.297z"/>
		<path style="fill:#004F3D;" d="M160.139,43.698c-0.401,0.979-0.976,1.82-1.723,2.52c-0.746,0.7-1.647,1.246-2.701,1.639
			c-1.055,0.392-2.227,0.588-3.515,0.588c-1.307,0-2.482-0.196-3.527-0.588c-1.046-0.393-1.933-0.938-2.66-1.639
			c-0.729-0.699-1.288-1.54-1.681-2.52c-0.392-0.98-0.588-2.067-0.588-3.262V28.088h4.761v11.956c0,0.542,0.069,1.055,0.21,1.54
			c0.14,0.485,0.354,0.92,0.644,1.302c0.289,0.383,0.672,0.687,1.148,0.91c0.476,0.225,1.05,0.336,1.722,0.336
			s1.246-0.111,1.722-0.336c0.477-0.224,0.863-0.527,1.162-0.91c0.299-0.382,0.514-0.816,0.645-1.302
			c0.13-0.485,0.195-0.998,0.195-1.54V28.088h4.788v12.349C160.74,41.631,160.54,42.718,160.139,43.698z"/>
		<path style="fill:#004F3D;" d="M176.084,47.912l-7.979-12.964h-0.084l0.112,12.964h-4.648V28.088h5.46l7.952,12.937h0.084
			l-0.112-12.937h4.648v19.824H176.084z"/>
		<path style="fill:#004F3D;" d="M184.484,47.912V28.088h13.328v4.032h-8.708v3.752h8.232v3.836h-8.232v4.116h9.212v4.088H184.484z"
			/>
	</g>
	<circle style="fill:#8FC247;" cx="24" cy="25.435" r="22.386"/>
</g>
<g id="Layer_3">
</g>
</svg>
